# xmcd
#
# Track frame offsets:
#	150
#	43759
#	74915
#	92904
#	172823
#	204941
#	256040
#
# Disc length: 3604 seconds
#
# Revision: 1
# Processed by: cddbd v1.5.2PL0 Copyright (c) Steve Scherf et al.
# Submitted via: audiograbber 1.83.01
#
DISCID=5c0e1207
DTITLE=Grateful Dead - 71-07-02 Fillmore West, San Francisco CA
DYEAR=1900
DGENRE=
TTITLE0=Hard To Handle
TTITLE1=Deal
TTITLE2=Promised Land
TTITLE3=Good Lovin'
TTITLE4=Sugar Magnolia
TTITLE5=Sing Me Back Home
TTITLE6=Mama Tried
EXTD=
EXTT0=
EXTT1=
EXTT2=
EXTT3=
EXTT4=
EXTT5=
EXTT6=
PLAYORDER=
